Title: 
You Aint Seen Nothin Yet Aka Vous n'avez Encore Rien Vu

Country: 
France/2012

Language: 
French

No subtitle

Director:
Alain Resnais

Writers:
Alain Resnais, Laurent Herbiet

Stars:
Mathieu Amalric, Pierre Arditi, Sabine Azéma

Sumary:
From beyond the grave, celebrated playwright Antoine d’Anthac gathers together all his friends who have appeared over the years in his play "Eurydice". These actors watch a recording of the work performed by a young acting company, La Compagnie de la Colombe. Do love, life, death and love after death still have any place on a theater stage? It’s up to them to decide. And the surprises have only just begun... 

Trivia: 
Selection from Palm D'or in Cannes Film Festival 2012

Imdb: 
http://www.imdb.com/title/tt1690389/

Trailer: 
http://www.bandes-annonces.fr/film-2012/bande-annonce-vousnavezencorerienvu.html


Media Info:

General
Complete name                            : You.Aint.Seen.Nothin.Yet.2012.BRRip.AC3.XviD.HORiZON-ArtSubs
Format                                   : AVI
Format/Info                              : Audio Video Interleave
File size                                : 1.64 GiB
Duration                                 : 1h 54mn
Overall bit rate                         : 2 053 Kbps
Writing application                      : FairUse Wizard - http://fairusewizard.com
Writing library                          : The best and REALLY easy backup tool

Video
ID                                       : 0
Format                                   : MPEG-4 Visual
Format profile                           : Advanced Simple@L5
Format settings, BVOP                    : 1
Format settings, QPel                    : No
Format settings, GMC                     : No warppoints
Format settings, Matrix                  : Default (MPEG)
Muxing mode                              : Packed bitstream
Codec ID                                 : XVID
Codec ID/Hint                            : XviD
Duration                                 : 1h 54mn
Bit rate                                 : 1 596 Kbps
Width                                    : 712 pixels
Height                                   : 296 pixels
Display aspect ratio                     : 2.40:1
Frame rate                               : 23.976 fps
Color space                              : YUV
Chroma subsampling                       : 4:2:0
Bit depth                                : 8 bits
Scan type                                : Progressive
Compression mode                         : Lossy
Bits/(Pixel*Frame)                       : 0.316
Stream size                              : 1.28 GiB (78%)
Writing library                          : XviD 1.2.1 (UTC 2008-12-04)

Audio
ID                                       : 1
Format                                   : AC-3
Format/Info                              : Audio Coding 3
Mode extension                           : CM (complete main)
Format settings, Endianness              : Big
Codec ID                                 : 2000
Duration                                 : 1h 54mn
Bit rate mode                            : Constant
Bit rate                                 : 448 Kbps
Channel(s)                               : 6 channels
Channel positions                        : Front: L C R, Side: L R, LFE
Sampling rate                            : 48.0 KHz
Bit depth                                : 16 bits
Compression mode                         : Lossy
Stream size                              : 367 MiB (22%)
Alignment                                : Split accross interleaves
Interleave, duration                     : 42 ms (1.00 video frame)
Interleave, preload duration             : 500 ms

